<svg xmlns="http://www.w3.org/2000/svg" xmlns:xlink="http://www.w3.org/1999/xlink" width="178" height="67" viewBox="0 0 178 67">
    <defs>
        <path id="a" d="M33.77.052H.155v45.38h33.613V.052z"/>
    </defs>
    <g fill="none" fill-rule="evenodd">
        <path fill="#FFF04B" d="M22.893 0C-2.045 0-7.204 32.317 10.355 48.517 20.366 57.753 27.927 67 40.446 67 55.512 67 58 55.437 58 34.655 58 13.912 45.35 0 22.893 0"/>
        <path fill="#00234B" d="M11.601 36.022c1.99 0 3.601-1.524 3.601-3.403 0-1.88-1.612-3.404-3.6-3.404C9.611 29.215 8 30.74 8 32.62s1.612 3.403 3.601 3.403M40.413 36.022c1.99 0 3.601-1.524 3.601-3.403 0-1.88-1.612-3.404-3.6-3.404-1.99 0-3.602 1.524-3.602 3.404s1.612 3.403 3.601 3.403"/>
        <g transform="translate(10.246 11.01)">
            <mask id="b" fill="#fff">
                <use xlink:href="#a"/>
            </mask>
            <path fill="#00234B" d="M31.44 37.064c-4.646 2.433-9.991 3.83-15.68 3.83-3.452 0-6.777-.523-9.898-1.469l25.312-35.4c.13-.2.188-.376.191-.56l.002-.09V.051H.156V4.59h24.598S.359 38.708.349 38.724c-.13.2-.188.375-.191.56l-.002.09v2.822c4.746 2.075 10.032 3.236 15.604 3.236 6.534 0 12.673-1.59 18.01-4.384l-2.33-3.984z" mask="url(#b)"/>
        </g>
        <g fill="#00234B">
            <path d="M99.021 18.59c-4.438 0-8.05 3.68-8.05 8.203 0 4.525 3.612 8.206 8.05 8.206 4.438 0 8.05-3.68 8.05-8.206 0-4.523-3.612-8.204-8.05-8.204m0 12.16c-2.098 0-3.74-1.738-3.74-3.956 0-2.217 1.642-3.953 3.74-3.953 2.08 0 3.77 1.774 3.77 3.953 0 2.181-1.69 3.955-3.77 3.955M137.685 20.286c-1.113-1.096-2.694-1.697-4.478-1.697-3.755 0-7.557 2.819-7.557 8.206 0 3.183 1.365 5.119 2.51 6.184 1.363 1.265 3.227 2.02 4.986 2.02 1.792 0 3.43-.687 4.54-1.895v1.584h4.401V11h-4.402v9.286zm-3.71 10.587c-2.289 0-4.016-1.767-4.016-4.11 0-2.325 1.727-4.08 4.016-4.08 2.185 0 3.833 1.755 3.833 4.08 0 2.306-1.684 4.11-3.833 4.11zM152.387 18.59c-4.439 0-8.05 3.68-8.05 8.203 0 4.525 3.611 8.206 8.05 8.206 4.438 0 8.05-3.68 8.05-8.206 0-4.523-3.612-8.204-8.05-8.204m0 12.16c-2.098 0-3.74-1.738-3.74-3.956 0-2.217 1.642-3.953 3.74-3.953 2.08 0 3.772 1.774 3.772 3.953 0 2.181-1.692 3.955-3.772 3.955M113.15 26.795c0-2.218 1.684-3.955 3.833-3.955a3.78 3.78 0 0 1 3.276 1.906l3.631-2.27c-1.446-2.425-4.01-3.886-6.938-3.886-4.438 0-8.05 3.68-8.05 8.205 0 4.524 3.612 8.205 8.05 8.205 2.93 0 5.492-1.462 6.94-3.887l-3.632-2.27a3.783 3.783 0 0 1-3.277 1.906c-2.149 0-3.833-1.737-3.833-3.954zM170.319 30.749c-2.149 0-3.833-1.737-3.833-3.954 0-2.218 1.684-3.955 3.833-3.955a3.78 3.78 0 0 1 3.276 1.906l3.631-2.27c-1.446-2.425-4.01-3.886-6.938-3.886-4.438 0-8.05 3.68-8.05 8.205 0 4.524 3.612 8.205 8.05 8.205 2.929 0 5.492-1.462 6.938-3.887l-3.63-2.27a3.78 3.78 0 0 1-3.277 1.906M88.02 17.672l1.35-1.95.076-.112a.983.983 0 0 0 .17-.54l.001-.088V11H74v4.364h10.365l-1.095 1.581-6.582 9.507-2.44 3.524-.076.112a.973.973 0 0 0-.17.54l-.002.087v3.983h15.616v-4.364H79.252l2.008-2.9 6.759-9.762z"/>
        </g>
    </g>
</svg>
